<?xml version="1.0" encoding="utf-8"?>
<!-- Generator: Adobe Illustrator 23.0.1, SVG Export Plug-In . SVG Version: 6.00 Build 0)  -->
<svg version="1.1" id="Layer_5" xmlns="http://www.w3.org/2000/svg" xmlns:xlink="http://www.w3.org/1999/xlink" x="0px" y="0px"
	 viewBox="0 0 512 512" style="enable-background:new 0 0 512 512;" xml:space="preserve">
<style type="text/css">
	.st0{fill:url(#XMLID_3_);stroke:#FFFFFF;stroke-miterlimit:10;}
</style>
<linearGradient id="XMLID_3_" gradientUnits="userSpaceOnUse" x1="-121.962" y1="441.8441" x2="535.7145" y2="126.9004">
	<stop  offset="0" style="stop-color:#FE5400"/>
	<stop  offset="0.3332" style="stop-color:#F17900"/>
	<stop  offset="0.9242" style="stop-color:#D7C400"/>
</linearGradient>
<path id="XMLID_1_" class="st0" d="M440,288c17.6,0,32-14.4,32-32s-14.4-32-32-32s-32,14.4-32,32S422.4,288,440,288z M440,240
	c8.8,0,16,7.2,16,16s-7.2,16-16,16s-16-7.2-16-16S431.2,240,440,240z M32,352h48v-32h16v32h48v-64h31.8l-38.5,174.8
	c-5.1,16.9,4.6,34.8,21.4,39.8c3,0.9,6.1,1.4,9.2,1.4c14,0,26.6-9.4,30.7-22.9L242,329.4c1.4,2.8,2.5,5.8,3.1,9l28.3,142.8
	c4,13.4,16.6,22.8,30.7,22.8c3.1,0,6.2-0.5,9.2-1.4c16.9-5.1,26.5-22.9,21.6-39.1l-29.7-148.6c8.9-5.7,14.9-15.6,14.9-26.9h14
	c13.1,33.7,45.3,56,82,56c48.5,0,88-39.5,88-88s-39.5-88-88-88c-36.6,0-68.9,22.3-82,56h-14v-32c0-30.1-18.5-55.9-44.8-66.7
	C292.5,113.9,304,94.3,304,72c0-35.3-28.7-64-64-64s-64,28.7-64,64c0,25.3,14.8,47.2,36.2,57.6c-5.4,3.1-10.4,6.9-14.9,11.3
	C175.2,128.6,160,107.6,160,88c0-17.6-14.4-32-32-32S96,70.4,96,88c0,47.1,31.9,92.2,79.9,114l0,22H37.6L8,243.7v24.6l24,16L32,352z
	 M345.5,240l1.8-5.6c9.5-30.1,37.1-50.4,68.7-50.4c39.7,0,72,32.3,72,72s-32.3,72-72,72c-31.6,0-59.2-20.3-68.7-50.4l-1.8-5.6H320
	v-32H345.5z M128,336h-16v-32H64v32H48v-48h80V336z M319.3,467.4c2.5,8.4-2.3,17.4-10.7,19.9c-8.3,2.5-17.5-2.7-19.7-10l-28.1-142.1
	c-3.6-18.1-16.7-33-34.2-38.9l-5.1,15.2c2.8,0.9,5.4,2.2,7.9,3.8l-46,161.2c-2.5,8.2-11.6,13.2-19.9,10.7
	c-8.4-2.5-13.2-11.5-10.6-20.5l39-177.1l0-1.7H256c0,17.6,14.4,32,32,32c0.6,0,1.2-0.1,1.8-0.2L319.3,467.4z M192,72
	c0-26.5,21.5-48,48-48s48,21.5,48,48s-21.5,48-48,48S192,98.5,192,72z M112,88c0-8.8,7.2-16,16-16s16,7.2,16,16
	c0,24.9,17,50.3,43.2,65.6c-5.8,9.1-9.7,19.6-10.9,30.9C138,164.4,112,126.2,112,88z M191.9,192c0-30.9,25.2-56,56-56
	c30.9,0,56.1,25.1,56.1,56v96c0,8.8-7.2,16-16,16s-16-7.2-16-16v-86.9c0-13.4-6.7-25.8-17.8-33.3l-9.8-6.5l-8.9,13.3l9.8,6.5
	c6.7,4.5,10.7,11.9,10.7,20V224h-64.2L191.9,192z M24,252.3L42.4,240H256v32H42.4L24,259.7L24,252.3z"/>
</svg>
