<svg version="1.1" id="Camada_1" xmlns="http://www.w3.org/2000/svg" x="0" y="0" viewBox="0 0 144 131" xml:space="preserve"><style>.st0{fill:#daa520;stroke:#daa520;stroke-width:.5;stroke-miterlimit:10}</style><path class="st0" d="M64.7 79.4l7.1-4.8c.3-.2.7-.3 1.1-.2.4 0 .8.2.8.4l2.2 5.2c.4.7-.1 1.4-1.3 1.8-.6.2-1.3.3-1.9.3-.7 0-1.3-.1-1.9-.3l-.8-.3-1.3.3c-1.3.3-2.8.1-3.8-.4-.8-.5-1-1.3-.2-2 0 .1 0 .1 0 0zm2 1.3c.1.1.6.3 1.3.1l1.8-.4c.4-.1.8 0 1.1.1l1.3.4c.6.2 1.1.1 1.3 0 .2-.1.6-.3.4-.6l-1.7-4-5.6 3.7c-.4.4 0 .6.1.7zm8.2-7.8l.9-1.2c.6-.8 1.8-1.3 3.4-1.6 1.6-.3 3.3-.2 4.7.2 3.2 1 6.5 1.6 9.5 1.9.6.1 1 .4.9.7-.1.3-.7.5-1.3.4-3.2-.3-6.6-1-10.1-2.1-1-.2-2-.2-2.9 0s-1.7.5-2 1l-1 1.1c-.2.2-.6.3-1 .3h-.4c-.6-.1-.9-.4-.7-.7zm2.5 8.1c1.3-.4 3.1-.5 5.6-.3 3.6.4 4.7.2 4.9.2.4-.2 1.1-.2 1.6.1.3.2.3.4.2.6-.6.6-2.9.6-7.1.2-2.3-.2-3.5-.1-4 .2-.3.1-.6.2-1 .1-.9-.1-1.2-.6-.6-.9l.4-.2zm-6.7-37.6c.7.3 1 .3 1.8.2.7-.1 1.7-.2 2.6.1 1.7.6 1.6 1.9 1.6 2.1 0 .1-.2.3-.4.4-.2.1-.5.1-.7.1h-.1c-.1 0-3.3-.2-4.6-1.6-.6-.1-1.2-.2-1.8-.6-.4-.2-.4-.6 0-.8.4-.1 1.1-.1 1.6.1zm3.5 1.6c-.1-.2-.3-.3-.5-.4h-.4c.2.2.6.3.9.4z"/><path class="st0" d="M39.3 61.5c3.7-2.8 10.3-4.1 16.9-3.2 6.6.9 11.5 1.8 12.9 2.1.5-.1 1-.2 1.6-.3-.5-.2-1.5-.5-3.3-1-2.5-.6-5.7-1.4-9.1-2.1-1.9-.4-3.8-.9-5.7-1.3-5-1.1-8.6-3.4-9.7-6.1-1.2-2.7.4-5.4 4.4-7.7 3.8-2.2 8.8-3.1 14.9-2.9 4.8.2 8.9 1.2 10.9 1.7h.2c3.8.9 5.1 1.3 6.1 3.3.3.6 1.2 1 2 1.5 1 .6 2 1.1 1.9 1.8 0 .4-.5.8-1.3 1.1-1.4.6-2.8.9-4.1.8-1.8-.1-3.1-.9-4-1.6-2.1-.4-4.1-1.3-5.5-2l.9.6c.6.4 1.2.9 1.6 1.4 1.1 1.4 3.4 2.4 6.2 2.8.5.1.9.3.8.6s-.6.5-1.1.5h-.3c-1.7-.2-3.2-.7-4.5-1.2.5.5 1.4 1 2.7 1.5.5.2.6.5.3.7-.2.2-.6.3-1 .3-.2 0-.5 0-.7-.1-4.8-1.7-4.6-3.7-4.4-4.4-.1-.1-.1-.2-.2-.2-.2-.2-.4-.5-.7-.7-.2.8-.4 1.6-.8 2-.2.2-.8.4-1.3.3-.6-.2-.9-.4-.9-.7.1-.3-.4-1.2-.8-2-.7-1.3-1.5-2.6-1.2-3.8-3-.3-5.4 0-7 .8-2 1.1-2.4 2.9-1.1 4.7C56.6 50.9 65 52 73.2 53c4.3.5 8.7 1.1 12.1 1.8 5.4 1.2 7.7 3 8.7 4.3.7.9.9 1.8.9 2.2 3.1.6 5.7 1.4 8 2.3 5.9 2.4 8.6 5.7 8 9.9-.4 1.2-1.1 2.2-2.2 3-1.9 1.4-2.9 3.1-2.7 4.8.1.8-.4 1.5-1.2 2.2 1.9.9 3.5 2 4.7 3.2 2.4 2.3 3.1 4.9 2 7.3s-3.9 4.2-7.8 5.2c-2 .5-4.1.7-6.2.7-6.7 0-13.7-2.2-17.4-5.9l-9.9-.3c-.5 0-1 .1-1.3.2-.5.3-.5.8-.2 1.5.2.5.5 1 .8 1.5 1.5 2.5 3.1 5.4-1.3 7.2-1.5.6-3.1.9-4.8.9-.7 0-1.5-.1-2.2-.2-3.4-.5-6.3-2.3-7.6-4.5-.1-.2 0-.5.4-.6.5-.2 1.2-.1 1.6.1.8.6 2.6 1.8 3.8 1.8.5 0 1-.3 1.4-.6.6-.5.1-1.2-.8-2.4-1.2-1.6-2.9-3.7-.5-6.1-.3-.1-.5-.3-.8-.5-1.1-.8-1.4-1.8-.8-2.7.5-.8.8-1.5 1-2.3l1.1-6c-3.2-.4-5.5-1.8-5.4-3.5v-.3c-3.9-1.4-9.5-3.7-14.5-6.9-4.2-2.6-4.5-6-.8-8.8zm45.1-5.7c-3.2-.7-7.3-1.2-11.7-1.8-8.7-1.1-17.8-2.2-19.8-5-1.6-2.2-1-4.5 1.5-5.8 1.4-.7 4.5-1.8 10.3-1 .3 0 .5.1.7.3.1.1.2.3.1.4-.5.7 0 1.9.6 3 .1-.6.1-1.3 0-1.8 0-.2.3-.4.7-.5.5-.1 1 0 1.2.2 0 0 3.6 2.3 6.9 2.9.2 0 .5.1.6.2 1 .8 1.9 1.2 2.7 1.2.6 0 1.4-.1 2.4-.5.3-.1.5-.3.5-.4 0-.2-.7-.6-1.3-1-1-.5-2.1-1.2-2.6-2-.7-1.5-1.4-1.8-4.9-2.6h-.2c-3.8-.9-15.3-3.6-23.2.9-3.5 2-4.9 4.4-3.9 6.8 1 2.3 4.2 4.3 8.5 5.3 1.9.4 3.8.9 5.7 1.3 8.4 1.9 12.7 2.9 14 3.9 1.9-.2 3.9-.2 6.1-.1 5 .2 9.5.6 13.4 1.2-.3-1.2-1.7-3.7-8.3-5.1zm18.3 42.4c3.4-.8 5.7-2.4 6.6-4.5s.3-4.4-1.8-6.5c-1.1-1.1-2.5-2-4.2-2.9-1.4.6-3.1.9-4.9.9h-1.7c-.8 0-1.5.2-1.9.4 2.3.9 4.8 2.2 5.8 3.2.9.9 1.2 1.9.8 2.8-.1.3-.3.5-.5.8 1-.3 2.2-.6 3.4-1.2.5-.2 1.2-.2 1.6.1.4.2.4.6-.1.8-3.5 1.5-6.6 2-9 2-.5 0-2.8-.2-3.6-.4-1.3-.3-2.4-.8-3.2-1.3-1.7 1-4.3 1.6-7 1.6h-.1c4.3 4 13.1 5.9 19.8 4.2zm-8.8-11.4l-2.3 3.9c-.1.2-.3.5-.5.7.7.6 1.7 1.1 2.8 1.4 1.1.3 2.3.3 3.3 0 1-.2 1.7-.7 1.9-1.3.3-.6.1-1.4-.6-2-.6-.8-2.5-1.9-4.6-2.7zm-32 11.5c1 1.2 1.9 2.3.6 3.3-.9.7-2 1.1-3.2 1.1h-.7c1 .5 2.1.9 3.2 1.1 1.7.3 3.4.1 4.9-.5 3.3-1.4 1.9-3.7.6-6-.3-.5-.6-1.1-.9-1.6-.4-.9-.4-1.6.2-2.1l-3.3-.1c-.8 0-1.5-.1-2.2-.3-1.7 1.9-.3 3.6.8 5.1zM60.6 80h2.1c.6 0 1.1.2 1.2.5.1.3-.4.6-1 .6h-.7l-.5 2.3c6.9 1 12.7 1.2 16.5 1.2 3.4 0 5.7-.2 6.5-.3.8-.4 1.9-.6 3.4-.8 1.2-.2 2.3-.6 2.9-1.1.6-.6.6-1.3.1-1.9-.4-.4-.5-.9-.5-1.3-1.5.9-3.8 1.4-6.2 1.4-.5 0-.9 0-1.4-.1l-2.4-.2c-3.1-.3-5.3-1.7-5-3.2 0-.1 0-.2.1-.3.3-1.5 2.2-2.9 4.9-3.6 2.7-.7 6-.8 8.8-.1.3.1.7.2 1 .3 2.3.6 3.4 1.9 2.6 3.2l-.1.2c.9-.4 2-.6 3.3-.7 1.8-.1 3.1-.9 3.1-1.8V72c0-.3.5-.5 1.1-.5s1.1.2 1.1.5v2.3c0 1.4-2.1 2.6-5 2.9-1.3.1-2.5.5-3.1 1.1s-.7 1.3-.2 1.9c.8.9.7 1.9-.2 2.8l-.1.1c.9-.2 1.9-.3 2.5-.3s1.1.3 1.1.6-.5.5-1.1.5c0 0-2.5 0-3.3 1.2-.2.2-.3.5-.5.8-.9 1.6-2.3 4.1-6.7 4.1l-.6.3c-1 .5-2.2.7-3.6.7h-.5c-10.4-.5-17.3-1.4-19.8-1.8l-.4.7c-.4.6-.2 1.2.5 1.7s1.8.8 3.1.9l18.8.6c3.3.1 6.3-.9 7.2-2.5l2.6-4.5c.6-1 2.5-1.7 4.6-1.7h1.7c1.5 0 2.9-.3 3.9-.8s1.6-1.2 1.5-1.9c-.1-1.9.9-3.8 3.1-5.4.9-.7 1.5-1.5 1.8-2.5 1.3-10.1-18-12.3-29.6-12.7-5.7-.2-10.2.4-13.4 1.9-4.2 1.9-5.1 4.7-5.3 5.6.7 0 1.5-.1 2.3 0 3 .1 5.4.7 6.8 1.7.3.2.2.6-.3.8-.2.1-.4.1-.6.1-.4 0-.7-.1-.9-.2-2.1-1.5-6.6-1.3-8-1.2 1 .3 2.1.6 3 .7.3-.2.7-.2 1.1-.2 2.4.3 6.8 1.5 6.3 4.3-.3 2.1-3.2 3.6-5.8 4.3-1.2-.1-2.4.1-3.4.1-.6 0-1.2-.1-1.7-.2-.4-.1-1.3-.4-2.6-.8.4 1 1.9 1.8 3.9 2zm2.7 6.9c-.9-.1-1.7-.2-2.3-.3l-.3 1.4c.6.1 1.4.2 2.6.4-.1-.5 0-1 0-1.5zm.3-1.1c.1-.4.3-.8.4-1.1-.8-.1-1.7-.2-2.6-.3l-.2 1.1c.6.1 1.4.2 2.4.3zm4.4 1.6c-.9-.1-1.7-.2-2.5-.2-.1.5-.1 1 .1 1.5.8.1 1.7.2 2.7.3-.3-.6-.3-1.1-.3-1.6zm.7-2.2c-.8-.1-1.6-.1-2.5-.2-.1.2-.3.6-.4 1 .8.1 1.6.1 2.4.2.2-.4.3-.7.5-1zm4.4 2.6c-1-.1-2-.1-2.9-.2 0 .5.1 1.1.4 1.6.9.1 1.8.2 2.7.2-.1-.5-.2-1.1-.2-1.6zm.3-2.3c-.8 0-1.7-.1-2.5-.1-.1.2-.3.6-.5 1.1.9.1 1.8.1 2.8.2.1-.5.2-.9.2-1.2zm4.4 2.5c-.9 0-1.7-.1-2.5-.1 0 .6.1 1.2.3 1.6.8.1 1.6.1 2.4.2-.1-.5-.2-1.1-.2-1.7zm.2-2.4c-.1 0-.1 0 0 0h-2.3c-.1.3-.2.7-.2 1.2.8 0 1.6.1 2.4.1 0-.5 0-1 .1-1.3zm5.4-.1c-.8.1-1.9.1-3.3.1 0 .4-.1.9-.1 1.4 1.1 0 2.1.1 3.2.1 0-.5.1-1.1.2-1.6zm-.5 2.7c-1 0-1.9 0-2.8-.1 0 .7.1 1.3.3 1.7.8 0 1.7-.1 2.3-.4.6-.3.9-.7.8-1.1v-.1h-.6zm2.8.5c1.9-.3 2.8-1.6 3.7-3.2.2-.3.3-.6.5-.9.1-.2.2-.3.3-.4-.5.1-1 .2-1.6.3-1.6.2-2.3.4-2.6.6-.2.1-.3.2-.4.4-.3.9-.2 1.8 0 2.7.1.2.1.3.1.5zM81 79.1l2.4.2c2.5.2 4.9-.4 6.2-1.4-1.6-.7-6.1-2.4-10.1-3-.9.5-1.4 1.2-1.6 1.9 0 .1 0 .2-.1.3-.2 1 1.2 1.9 3.2 2zm9.4-2.2l.4-.7c.5-.7-.2-1.5-1.6-1.9-.3-.1-.6-.2-.9-.2-1-.3-2.2-.4-3.3-.4-1.2 0-2.4.1-3.4.4-.1 0-.1 0-.2.1 3.6.7 7.2 2 9 2.7zm-48.6-7.2c7.7 4.9 16.9 7.7 18.7 8.2.3.1 1.3.1 2.8-.3 2.1-.5 4.4-1.7 4.6-3.4.2-1.1-.6-1.8-1.6-2.3l-3.3-.5h-.1c-.6-.1-4.9-.9-7.3-2.1-.5-.3-2-1.5-2.6-2.1-1.1-1.2-2.5-2.9-1.9-4.4.1-.3.7-.5 1.3-.4s1 .4.9.6c-.4 1 .4 2.3 1.3 3.3.7-.5 2-.8 4.6-.6.9-1.3 2.4-2.7 4.9-3.9.7-.3 1.4-.6 2.2-.8-2.3-.4-6.1-1.1-10.8-1.7-5.6-.7-11.3.3-14.5 2.7-2.3 2-3.5 5 .8 7.7zm16.9-2.9c-1-.1-2.1-.1-2.3.3-.2.3-.2.5.1.8s.8.6 1.5.9c0-.1.1-.1.2-.2-.1-.3.1-1 .5-1.8zM22.7 49c-.1-1.3.2-2.6.9-3.9.5-.9 1.1-1.6 1.8-2 .7-.4 1.3-.5 1.8-.2.7.4.8 1.1.5 2.1h.1l.3-.3c.2-.5.2-.9.1-1.3s-.3-.7-.7-.9c-.5-.3-1-.2-1.7.1h.1c.7-.4 1.3-.4 1.8-.1.7.4.9 1.1.6 2.2.4-.3.8-.5 1.2-.6.4-.1.8 0 1.1.2.5.3.7.7.7 1.3s-.2 1.2-.6 1.9c-.8 1.4-1.5 2.7-2.2 4.2-.1-.4-.1-.7-.2-1.1-.7-.3-1.5-.6-2.2-.9-.1.2-.2.5-.3.9h-.2c.1-.4.3-.7.4-.9-.1 0-.2-.1-.3-.1 0 .1 0 .1-.1.2-.1.2-.2.5-.4.9-.1-.2-.2-.3-.4-.5 0 0 0-.1.1-.1.1-.2.1-.3.2-.4.1-.1.1-.2.2-.3-.6-.3-1.3-.5-1.9-.8-.3-.1-.5.1-.7.4zm6.6-5.4c.5-.3 1.1-.2 1.6.1s.8.8.9 1.4c.1.6-.2 1.3-.7 2.2-.8 1.3-1.4 2.6-2.1 3.9h-.2c.6-1.3 1.2-2.5 1.9-3.7.5-.8.7-1.4.8-1.8.2-.9-.1-1.6-.8-2-.3-.1-.8-.1-1.4-.1 0 .1 0 .1 0 0zm-5.7 3.2c.8.3 1.5.6 2.3 1v-.1s0-.1.1-.1c0 0 0-.1.1-.1l-2.1-.9c.1-.4.2-.8.4-1.2.2-.4.5-.7.7-.9s.6-.3.9-.3c-.1 0-.1.1-.2.1-.6.1-1 .5-1.3 1.1-.2.3-.3.7-.3 1 .7.3 1.3.6 2 .9 0-.1.1-.2.1-.3.4-.8.6-1.4.7-1.9 0-.5-.2-.8-.6-1.1-.4-.2-.8-.2-1.2 0-.4.2-.8.6-1.1 1.1-.4.7-.5 1.2-.5 1.7zm2.7 1.2c.9.4 1.9.8 2.8 1.3.1-.1.1-.2.2-.3-.8-.4-1.6-.8-2.5-1.1.1-.3.2-.5.3-.6.4-.7.7-1.1 1-1.4.3-.2.6-.4 1-.4v.1c-.3.1-.6.2-.9.5s-.6.7-.9 1.3c-.1.2-.2.3-.3.5.8.4 1.6.7 2.3 1.1 0-.1.1-.1.1-.2.1-.3.3-.6.4-.9.5-1.1.5-1.9-.4-2.3-.5-.3-1-.3-1.4 0s-.9.9-1.5 2c0-.1-.1.1-.2.4zm5.6-14v.2c0 .7.2 1.3.4 1.8h-.2c-.5-.1-1 0-1.3.1-.3.2-.7.5-1.3 1.2-.2.3-.5.6-.8 1.1.7.5 1.4.9 2.2 1.4.1-.1.2-.2.3-.4-.6-.4-1.3-.8-1.9-1.3.2-.3.4-.6.7-.9.4-.5.8-.8 1-1 .3-.2.6-.2 1-.2-.1 0-.1 0-.2.1-.5.2-.8.3-.9.4-.2.1-.4.4-.7.8-.1.1-.3.3-.5.7l-.1.1 1.8 1.2c.3-.3.6-.7.8-1-.1-.4-.1-.8-.2-1.3.6.5 1.3 1 1.9 1.4-.4 0-.9.1-1.3.1L31.4 40c.9.6 1.7 1.2 2.6 1.8l.3-.3c-.8-.5-1.6-1.1-2.3-1.6.3-.4.6-.8 1-1.2.1 0 .2 0 .2-.1-.3.4-.7.8-1 1.2.7.5 1.5 1 2.2 1.6.6-.7 1-1.2 1.1-1.6.2-.3.2-.7.1-1.1-.1-.2-.1-.4-.1-.6V38c.4.2.8.3 1.1.3s.7 0 1.3-.1c-1.8 1.7-3.4 3.6-4.8 5.6 0-.4 0-.8.1-1.2-.7-.5-1.4-.9-2.1-1.3-.2.3-.3.7-.4 1h-.2c0-.3.2-.7.4-1.1-.1 0-.1-.1-.2-.1l-.1.1c-.5.4-.6.8-.6 1.3-.4-.5-.4-1 .1-1.7-.7-.4-1.4-.8-2-1.2l-1.2.6c1.4-2.2 3.1-4.3 5-6.2zm6.3 3.7c0 .2.1.4.1.6-1.7 1.7-3.3 3.4-4.7 5.3h-.2c1.4-1.9 3-3.7 4.7-5.4 0-.1-.1-.3-.1-.4-.8.1-1.5.1-2.2-.1.1 0 .1-.1.2-.1.5.1 1.2.1 2 0 .1.1.2.1.2.1zm-5.7-1c.7.5 1.3 1 2 1.5-.1 0-.1.1-.2.1-.7-.5-1.3-1-2-1.5.1-.1.1-.1.2-.1zm0-2.7c.1.9.2 1.5.4 1.9h-.2c-.2-.6-.4-1.2-.4-1.9h.2z"/><path class="st0" d="M38.5 28.4v1c.1.6.2 1 .2 1.1h-.1c-.3-.2-.6-.3-.8-.3h-.6c-.6.1-1.1.3-1.5.7-.4.3-.7.7-.8 1.1-.1.4 0 .7.2.9.5.4 1.2.3 2.3-.3.4-.2.7-.4 1.1-.6 1.6-.9 2.8-.8 3.5 0 .4.5.5 1 .3 1.6s-.6 1.2-1.2 1.7c-.4.3-.9.6-1.4.9-.2.1-.5.3-.7.4-.3.2-.5.3-.6.5-.2.2-.3.4-.4.7h-.1c-.1-.8-.3-1.5-.6-2.1 0 0 .1 0 .1-.1.5.3 1 .4 1.6.3.6-.1 1.2-.4 1.8-.9.5-.4.8-.7.9-1.1.1-.4.1-.7-.2-1s-.8-.5-1.4-.3c-.4.1-1.2.4-2.2 1-.8.5-1.4.8-2 .8-.5.1-1-.1-1.5-.4-.4-.4-.6-.9-.5-1.5.1-.6.6-1.3 1.3-1.9.5-.4 1-.8 1.8-1.2.3-.2.6-.3.7-.4.4-.1.5-.3.8-.6-.1 0-.1 0 0 0zm2.4 2.6c.8-.1 1.4.1 1.8.6.5.5.6 1.2.3 1.9-.2.8-.7 1.4-1.4 2-.4.3-.7.5-1.1.7-.3.2-.6.4-.9.5-.2.1-.4.3-.6.5-.2.2-.3.4-.4.6-.1 0-.1 0-.2-.1.1-.2.2-.4.4-.6.2-.2.4-.4.7-.5.3-.2.6-.4.9-.5.4-.2.7-.4 1.1-.7.7-.5 1.1-1.2 1.3-1.9s.1-1.3-.3-1.8c-.4-.4-.9-.6-1.6-.7zm-4.8 3.7c.1 0 .2-.1.3-.1.3 0 .7-.1 1.4-.5.3-.2.7-.4 1-.6.7-.4 1.2-.6 1.5-.7.3-.1.5-.1.8 0-.3 0-.6 0-.8.1-.3.1-.7.3-1.3.6-.9.5-1.5.9-1.9 1-.5.3-.8.3-1 .2zm2 .6c.6.3 1.3.4 2 .1-.8.4-1.5.4-2.2 0 .1 0 .1-.1.2-.1zm-.1-4.9c-.7 0-1.4.2-1.8.7-.3.2-.5.5-.5.8-.1.3 0 .5.2.7.2.2.6.2 1.2.1h.1v.1c-.6.3-1.1.3-1.4 0-.2-.2-.3-.4-.2-.8.1-.3.3-.6.6-.9s.7-.5 1-.6c.2-.2.5-.2.8-.1zm1-2.1v.1c0 .3 0 .6.1.9.1.6.1.9.1 1v.1c-.1 0-.1 0-.2.1v-.1c-.1-.3-.1-.6-.2-1.1 0-.3-.1-.6-.1-.8v-.1c.2 0 .2-.1.3-.1zm8.1-5.1v.1c0 .3-.1.5-.1.8v1h-.1l-.1-.1c-.4-.3-.7-.4-1-.4s-.8.1-1.2.4c-.2.1-.4.2-.6.4h-.1c1.2 1.6 2.3 3.2 3.4 4.9.3 0 .7.1 1 .1l-2.7 1.5c.1-.3.3-.7.4-1-1.1-1.5-2.2-2.9-3.3-4.4-.2.1-.3.2-.5.3-.4.3-.7.5-.8.8-.1.2 0 .5.2.8-.1 0-.1.1-.2.1-.2-.4-.3-.7-.2-.9.1-.3.4-.6.9-.9.1-.1.3-.2.4-.2h.1l-.2-.2c-.2.1-.5.2-.7.4-.6.3-.9.7-1 1s0 .6.2 1h-.1c-.5-.3-1.2-.5-2-.7h-.1c2.9-1.9 5.6-3.5 8.4-4.8zm-.7 1.7c-.4 0-.9.2-1.4.4-.1.1-.2.1-.3.2 1.1 1.5 2.1 3 3.2 4.5.5.1 1 .2 1.5.4-1 .5-2 1.1-3 1.7h-.2c.9-.6 1.8-1.1 2.8-1.6-.4-.1-.8-.2-1.3-.3-1.1-1.6-2.2-3.1-3.3-4.7.1-.1.2-.1.4-.2.4-.2.8-.4 1-.4.2-.1.4-.1.6 0zm1.4-1.7c-.2.4-.2 1-.2 1.8v.1h-.2V25c-.1-.8 0-1.4.2-1.8h.2zm12-4.4c0 .1-.1.1-.1.1-.1.2-.2.5-.3.7-.1.3-.2.6-.2.9h-.1v-.1c-.3-.4-.6-.6-.9-.7-.3-.1-.8 0-1.3.1-.2.1-.5.1-.7.2h-.1c.7 1.8 1.4 3.7 2.1 5.5.3.1.7.2 1 .3l-3 .9c.2-.3.4-.6.7-.9-.7-1.7-1.3-3.3-2-5-.2.1-.4.1-.5.2-.5.2-.8.4-1 .6-.1.2-.2.5 0 .8-.1 0-.1 0-.2.1-.1-.4-.1-.7.1-1 .2-.2.5-.5 1.1-.6.1 0 .3-.1.4-.1h.1c0-.1-.1-.2-.1-.2-.3.1-.5.1-.7.2-.6.2-1.1.5-1.2.7-.2.3-.2.6 0 1h-.1c-.4-.4-1-.8-1.7-1.1H51c2.6-1 5.7-1.9 8.8-2.6zm-1.2 1.5c-.4-.1-.9 0-1.4.1-.1 0-.2.1-.4.1.6 1.7 1.3 3.4 1.9 5.1.5.2.9.4 1.4.7-1.1.3-2.2.6-3.3 1-.1 0-.1-.1-.2-.1 1-.3 2.1-.7 3.1-.9-.4-.2-.8-.4-1.2-.5-.6-1.8-1.3-3.5-1.9-5.3.1 0 .3-.1.4-.1.5-.1.8-.2 1.1-.2.1-.1.3-.1.5.1zm1.8-1.3c-.3.4-.5 1-.7 1.8v.1c-.1 0-.1 0-.2-.1v-.1c.1-.8.4-1.4.6-1.7.1-.1.2 0 .3 0zm7.2-1.5c-.3.2-.5.5-.7.7.5.7 1.1 1.5 1.5 2.2.1 0 .2-.1.3-.1-.4-.7-.9-1.3-1.4-2 .2-.2.5-.5.8-.7h.2l-.7.7c.4.6.9 1.3 1.3 1.9.1 0 .1-.1.1-.1.1-.1.2-.1.2-.2.1-.1.2-.2.3-.2.2.4.4.7.7 1.1h-.3c-.5 0-.8.1-1 .2.5.8 1 1.7 1.5 2.5.4.2.7.4 1.1.6-1.2 0-2.3.1-3.5.2.3-.2.6-.5.9-.7-.3-.5-.6-1-1-1.5-.5.4-.8.9-1 1.3h-.2c.2-.4.6-.8 1.1-1.3l.1-.1-.2-.2c-.5.4-.9.9-1.2 1.4-.1 0-.1-.1-.2-.1-.3-.3-.7-.6-1.1-.9 0 0-.1 0-.1-.1-.3.7-.3 1.2-.3 1.6 0 .2.1.4.3.5.1.1.4.4.8.7 0 0 .1.1.2.1l-3.6.6c-.1 0-.1-.1-.2-.1 1.1-.2 2.3-.4 3.4-.6l-.1-.1c-.3-.2-.6-.4-.7-.6-.1-.1-.2-.3-.3-.5-.1-.4 0-.9.3-1.7-.1-.1-.2-.1-.4-.2 0 .1-.1.3-.1.5s-.1.4-.1.6c-.1.3-.1.6 0 .7 0 .2.1.4.2.5s.3.3.7.4c0 0 .1 0 .1.1-1.1.2-2.3.4-3.4.6.6-.4 1-.8 1.3-1.4.3-.5.5-1.3.7-2.2v-.1c-.3-.1-.7-.1-1.2-.1.2-.3.3-.7.4-1 .1 0 .1.1.1.1.1.1.3.1.4.2.1.1.3.1.5.2 0-.1.1-.2.1-.3h-.1c-.3-.1-.5-.2-.7-.3h-.1l.1-.1.9.3c.2-.7.4-1.4.7-2.1-.3-.2-.6-.3-.9-.5 1.1-.1 2.3-.3 3.5-.4zm-2.1 1.4c-.3.8-.6 1.6-.8 2.4.4.2.8.4 1.1.7.1.1.3.2.4.3l.1.1.1-.1.1-.1.1-.1c-.4-.3-.9-.6-1.4-.9.2-.6.4-1.3.7-1.9l-.4-.4zm.4.5c-.2.5-.4 1.1-.6 1.6.1 0 .1 0 .1.1.1.1.2.1.3.2.2.1.4.3.7.5 0 0 .1 0 .1.1l.7-.7c-.4-.5-.8-1.2-1.3-1.8zm4.3.6c.1.3.4.7.9 1.3h-1.5c.5.8.9 1.5 1.4 2.3.5.3 1.1.7 1.6 1-1.3 0-2.6.1-3.9.2l-.1-.1c1.2-.1 2.4-.2 3.6-.2-.4-.3-.8-.5-1.3-.8l-1.5-2.4c.2 0 .4-.1.6-.1h.9l-.1-.1c-.3-.4-.6-.8-.6-1.1-.2-.1-.1-.1 0 0zm11.3-2.2l-.1.1-.6.6c-.2.2-.4.5-.6.8h-.1v-.1c-.1-.4-.3-.7-.5-.9-.3-.2-.7-.3-1.3-.3h-.8c-.2 1.9-.3 3.9-.5 5.8.3.2.5.4.8.6-1-.1-2.1-.1-3.1-.2.3-.2.7-.4 1-.6.1-1.8.2-3.6.3-5.3h-.6c-.5 0-.9.1-1.2.2-.2.1-.4.4-.4.8h-.2c.1-.4.2-.7.5-.9.3-.2.7-.2 1.3-.2h.6v-.3c-.3 0-.5-.1-.8-.1-.7 0-1.2.1-1.5.3-.3.2-.5.5-.5 1h-.1c-.2-.5-.6-1-1.1-1.6v-.1c3.1-.2 6.3-.1 9.5.4zm-1.8.9c-.4-.2-.8-.4-1.4-.4h-.4c-.2 1.8-.3 3.6-.5 5.4.3.4.7.7 1 1.1-1.2-.1-2.3-.2-3.5-.2-.1 0-.1-.1-.2-.1 1.1 0 2.2.1 3.3.2-.3-.3-.6-.6-.8-.9.2-1.9.3-3.7.5-5.6h.4c.5 0 .9.1 1.1.2.3 0 .5.2.5.3zm2.3-.5c-.4.3-.9.7-1.4 1.4-.1 0-.1-.1-.2-.1.5-.7.9-1.2 1.4-1.4.1 0 .1 0 .2.1z"/><path class="st0" d="M90.7 19.7c-.1 0-.1.1-.1.1-.2.2-.5.3-.7.5-.3.2-.5.4-.8.7l-.1-.1v-.1c0-.4-.1-.8-.3-1-.2-.2-.6-.4-1.2-.5-.2-.1-.5-.1-.7-.1h-.1c-.5 1.9-1.1 3.8-1.6 5.6.2.2.4.5.6.7-1-.2-2-.4-3.1-.6.4-.2.7-.3 1.1-.4.4-1.7.8-3.5 1.3-5.2-.2 0-.4-.1-.5-.1-.5-.1-.9-.1-1.2 0-.3.1-.4.3-.5.7h-.2c.1-.4.3-.7.6-.8.3-.1.7-.1 1.3 0 .2 0 .3.1.5.1h.1c0-.1 0-.2.1-.3-.3-.1-.5-.1-.7-.2-.7-.1-1.2-.1-1.5 0s-.6.4-.7.9h-.1c-.1-.5-.4-1.1-.7-1.8v-.1c3.1.4 6.2 1.1 9.2 2zm-1.9.7c-.3-.3-.8-.5-1.3-.6-.1 0-.2-.1-.4-.1-.5 1.7-1 3.5-1.5 5.2.3.4.5.8.8 1.2-1.1-.3-2.3-.5-3.4-.7 0-.1-.1-.1-.1-.2 1.1.2 2.1.4 3.2.7-.2-.3-.4-.7-.7-1l1.5-5.4c.1 0 .3.1.4.1.5.1.8.2 1 .3.3.1.5.3.5.5zm2.3-.2c-.5.2-1 .6-1.6 1.2l-.1-.1c.6-.6 1.2-1 1.6-1.2h.1c-.1 0 0 0 0 .1zm4.4 1c1.2.5 2 1.2 2.3 2 .3.9.2 1.8-.4 2.8-.5.9-1.3 1.5-2.2 1.8-.9.3-1.8.2-2.9-.2-.8-.3-1.4-.8-1.9-1.4-.7-.9-.9-2-.4-3.2.4-1 1.1-1.7 2-2.1 1.1-.2 2.3-.2 3.5.3zm-.2.4c-1.7-.6-2.9.1-3.7 2.1-.8 1.8-.4 3 1 3.5.7.3 1.3.2 1.9-.1.6-.3 1.1-.9 1.6-1.8.6-1 .8-1.8.6-2.4-.2-.5-.7-1-1.4-1.3zm2.4.8c.6.5.9 1.1.9 1.8.1.7-.1 1.4-.5 2.1-.6 1-1.4 1.6-2.5 2-1 .3-2.1.3-3.2-.2-.7-.3-1.3-.7-1.8-1.3.4.5 1 .9 1.8 1.2 1.1.4 2.1.5 3.1.2s1.8-.9 2.3-1.8c.4-.7.6-1.4.6-2 0-.8-.2-1.4-.7-2 0 .1 0 0 0 0zm-1.2.6c-.1 0-.1-.1 0 0-.5-.5-.8-.7-1.2-.9-1.3-.5-2.3.2-3 1.9-.5 1.3-.5 2.2 0 2.9h-.1c-.3-.4-.5-.8-.5-1.3 0-.4.1-1 .4-1.7.8-1.8 1.9-2.5 3.3-2 .5.3.9.7 1.1 1.1zm8 2.6c1.1.6 1.7 1.5 1.9 2.4.2.9-.2 1.8-.9 2.7-.7.8-1.5 1.3-2.5 1.4-.9.1-1.8-.1-2.8-.6-.7-.4-1.3-1-1.6-1.7-.5-1-.5-2.1.2-3.2.6-.9 1.4-1.5 2.4-1.7 1-.2 2.2 0 3.3.7zm-.3.4c-1.5-.9-2.9-.4-4.1 1.4-1.1 1.7-1 2.9.3 3.6.6.4 1.2.4 1.8.2.6-.2 1.3-.7 1.9-1.5.7-.9 1.1-1.6 1.1-2.2 0-.6-.3-1.1-1-1.5zm2.2 1.1c.4.6.6 1.3.6 2-.1.7-.4 1.3-.9 1.9-.8.9-1.7 1.4-2.8 1.5-1.1.1-2.1-.1-3.1-.7-.6-.4-1.1-.9-1.5-1.6.3.5.8 1 1.5 1.4 1 .6 1.9.8 3 .7 1-.1 1.9-.6 2.6-1.4.5-.6.9-1.2 1-1.9.1-.6-.1-1.2-.4-1.9 0 .1 0 0 0 0zm-1.3.4s0-.1-.1-.1c-.3-.4-.6-.7-1-.9-1.1-.7-2.3-.2-3.4 1.3-.8 1.1-1 2.1-.6 2.8h-.1c-.2-.4-.3-.9-.3-1.3.1-.4.3-1 .7-1.6 1.1-1.7 2.4-2.2 3.7-1.4.7.4 1 .8 1.1 1.2zm9.3 5.9c-.4 0-.8 0-1.1.1-.6.1-1.1.2-1.2.3h-.1v-.1c.2-.3.2-.5.3-.7v-.5c-.1-.5-.4-1-.8-1.3-.4-.4-.8-.6-1.3-.6-.4-.1-.8 0-1 .3-.4.4-.2 1.1.5 2.1.3.3.5.6.8 1 1 1.4 1.1 2.4.3 3.1-.5.4-1.1.5-1.8.4-.7-.1-1.3-.4-2-.9-.4-.3-.8-.7-1.2-1.2-.2-.2-.3-.4-.5-.6-.2-.2-.4-.4-.6-.5-.2-.2-.5-.3-.8-.3v-.1c.9-.2 1.7-.4 2.3-.8l.1.1c-.3.5-.4 1-.2 1.5.1.5.5 1 1.1 1.5.5.4.9.6 1.3.7.4.1.8 0 1.1-.3.3-.3.4-.7.3-1.3-.1-.4-.5-1-1.3-1.9-.6-.7-.9-1.2-1-1.7s0-.9.4-1.3 1-.6 1.7-.5 1.4.4 2.1 1c.5.4.9.9 1.4 1.5.2.3.4.5.5.6.1.1.3.2.7.4zm-2.8 2.3c.2.7 0 1.3-.5 1.7s-1.2.6-2.1.5c-.8-.1-1.6-.5-2.3-1.1-.4-.3-.7-.6-.9-.9-.2-.3-.4-.5-.7-.8-.2-.2-.4-.4-.6-.5-.2-.2-.4-.3-.6-.3v-.2c.2.1.5.2.7.3.2.2.4.4.7.6.2.3.4.5.7.8l.9.9c.7.6 1.4.9 2.2 1 .8.1 1.5 0 2-.4.3-.5.5-1 .5-1.6zm-4.3-4c0 .1.1.1.1.2 0 .3.2.7.7 1.2.2.3.5.6.7.9.5.6.8 1 .9 1.3.1.2.1.5 0 .7h-.1c0-.3-.1-.5-.2-.7s-.4-.6-.8-1.2c-.6-.8-1.1-1.3-1.2-1.6-.2-.4-.2-.6-.1-.8zm-.6 1.8c-.3.6-.3 1.2.1 1.9-.5-.7-.6-1.3-.1-1.9zm5.4-.4c-.1-.7-.3-1.2-.8-1.6-.3-.2-.6-.4-.9-.4s-.6 0-.7.2c-.2.2-.2.5 0 1.1v.1h-.1c-.3-.6-.4-1-.1-1.3.2-.2.5-.3.8-.2.3.1.7.2 1 .5s.6.6.7.9c.2.2.2.5.1.7zm2.4.8c-.4 0-.8 0-1 .1-.7.1-1 .2-1.1.2h-.1c0-.1-.1-.1-.1-.2h.1c.3-.1.7-.1 1.2-.2.3 0 .6-.1.9-.1h.1v.2zm3.5 3.5c.8.9 1.5 1.9 2.1 2.8-.4-.1-.8-.3-1.2-.4-1.7 1-3.3 2-4.9 3.1v1c-.6-.8-1.2-1.6-1.9-2.4.4.1.7.2 1.1.3 1.6-1.1 3.2-2.2 4.8-3.2.1-.5.1-.9 0-1.2zm2.1 3.2l-.9-.3c-1.6 1-3.3 1.9-4.8 3-.1.5-.2 1-.2 1.5-.6-.9-1.3-1.8-2-2.7v-.2c.7.8 1.3 1.7 1.9 2.5.1-.4.1-.8.2-1.2 1.6-1 3.2-2 4.9-3 .3.1.7.2.9.4 0-.1 0 0 0 0z"/><path class="st0" d="M124.9 48.6c-.4-.4-.8-.7-1-.8-.4-.1-.8-.1-1.3.1-.1 0-.2.1-.3.1-1.5.6-3 1.3-4.4 1.9-.2-.3-.3-.7-.5-1 1-1.6 2-3.3 2.9-5.1-.9.5-1.8.9-2.7 1.4-.1 0-.1.1-.2.1-.2.1-.4.3-.7.4-.3.3-.4.6-.4.9v.1c-.2-.6.1-1.1.9-1.6.2-.1.3-.2.5-.2.9-.5 1.8-1 2.7-1.4l.3-.6c-1 .5-1.9 1-2.8 1.5s-1.4.9-1.6 1.2-.2.7 0 1.3c-.1.2-.1.5-.2.7-.6-1-1.2-2-1.9-3 0-.1 0-.1.1-.2l1.8 2.7c0-.1.1-.3.1-.4-.5-.9-1.1-1.7-1.7-2.6.4.4.8.5 1.2.5.3 0 .8-.1 1.4-.5L121 42v-1.1c.7 1 1.4 2.1 2 3.2-.3-.2-.7-.5-1-.7-1 1.8-2 3.5-3.1 5.2l.6-.3c.9-1.5 1.8-2.9 2.7-4.5.3.2.7.5 1 .7v.2l-.9-.6c-.8 1.4-1.6 2.8-2.5 4.1.8-.4 1.6-.7 2.4-1 .1 0 .2-.1.3-.1.6-.3 1-.5 1.1-.7s.2-.6.1-1.2c.3 1.3.7 2.4 1.2 3.4zm-.3.4c-.1 0-.1 0-.2-.1-.2-.3-.4-.5-.7-.6-.2-.1-.5 0-.9.1-1.8.7-3.5 1.4-5.2 2.2-.2-.4-.4-.8-.6-1.3l.1-.1.6 1.2c1.6-.7 3.3-1.5 5-2.1.5-.2.9-.2 1.1-.2.3.2.6.4.8.9zM28.3 87.3c-.1 0-.1-.1-.2-.1-.3-.1-.6-.3-.8-.4-.3-.2-.6-.3-1.1-.4v-.1h.1c.4-.1.7-.3.8-.5.1-.2.1-.6 0-1.1 0-.2-.1-.4-.1-.6V84c-2.1-.1-4.3-.3-6.5-.7-.2.3-.4.5-.6.8-.1-1.2-.2-2.3-.3-3.5.2.4.5.8.7 1.2 2 .4 4 .6 5.9.8v-.5c0-.5-.1-.8-.3-1-.2-.2-.4-.4-.8-.5v-.2c.5.1.8.3 1 .5s.3.6.3 1.1v.5h.3v-.6c-.1-.6-.2-1-.4-1.3-.2-.3-.6-.5-1-.6v-.1c.5-.1 1.1-.3 1.8-.6h.1c.1 2.8.4 5.5 1.1 8zM26.7 86c.1-.3.1-.7.1-1.2 0-.1 0-.2-.1-.3-2-.1-4-.3-6-.5-.3.3-.7.7-1 1.1-.2-1.3-.3-2.6-.4-3.9.1 0 .1-.1.2-.1 0 1.2.1 2.4.3 3.7.3-.3.5-.6.8-.9 2.1.3 4.2.5 6.2.6 0 .1 0 .2.1.4.1.4.1.7.1.9 0 0-.1.1-.3.2zm1.4 1.8c-.4-.3-1.1-.6-2-.9H26l.1-.1h.1c.9.3 1.6.6 2 .9-.1 0-.1 0-.1.1zm2.8 5.9c-.3-.2-.7-.3-1-.5-.7.5-1.4 1-2 1.5.1.1.2.2.3.2.6-.5 1.2-.9 1.8-1.4.4.2.7.4 1.1.5v.2c-.3-.2-.7-.3-1-.5-.6.4-1.2.9-1.7 1.3.1 0 .1.1.1.1.1.1.2.1.3.2.2.1.3.2.3.2-.4.2-.7.4-.9.8-.2-.2-.2-.3-.3-.3-.2-.4-.5-.7-.7-.9-.8.6-1.5 1.1-2.3 1.7 0 .4-.1.8-.1 1.2-.7-1.2-1.4-2.5-2-3.7.4.3.8.6 1.2 1 .5-.3.9-.7 1.4-1-.7-.5-1.3-.8-1.8-1.1V93c.5.3 1.2.7 1.9 1.2h.1l.2-.2c-.7-.5-1.3-.9-2-1.3l.1-.1c.2-.3.5-.6.8-1v-.1c-.8-.3-1.5-.5-1.9-.5-.3 0-.5.1-.6.2s-.4.4-.6.8c0 0-.1.1-.1.2-.5-1.4-.9-2.8-1.3-4.2l.1-.1c.3 1.3.7 2.6 1.2 3.9l.1-.1c.2-.3.4-.6.5-.7s.3-.2.6-.2c.4 0 1.1.2 2.1.5.1-.1.1-.2.2-.3-.2-.1-.4-.1-.7-.2-.2-.1-.5-.1-.7-.2-.4-.1-.7-.2-.9-.2-.2 0-.4 0-.5.1s-.3.3-.4.6c0 0 0 .1-.1.1-.4-1.3-.8-2.5-1.1-3.8.5.8 1 1.3 1.7 1.8.6.4 1.6.8 2.8 1.2h.1c.1-.3.1-.6 0-1.1l1.2.6c0 .1 0 .1-.1.1 0 .1-.1.2-.1.3-.1.1-.1.2-.1.4.1 0 .2.1.3.1v-.1c.1-.2.2-.4.2-.6V90c.1 0 .1.1.2.1-.1.2-.1.5-.2.7.9.3 1.7.5 2.6.7.1-.3.3-.5.4-.8.3 1 .8 2 1.3 3zM28.8 92c-1-.2-2-.5-3-.8-.2.4-.4.7-.6 1-.1.1-.2.2-.3.4v.1c.1 0 .1.1.1.1l.1.1s.1 0 .1.1c.3-.4.5-.8.7-1.2.8.2 1.6.5 2.4.7.2-.3.3-.4.5-.5zm-.6.4l-2.1-.6v.1c-.1.1-.1.2-.2.3-.1.2-.2.4-.4.6 0 0 0 .1-.1.1.3.2.6.4 1 .6.6-.3 1.2-.7 1.8-1.1zm.8 3.7c-.3.2-.6.5-1 1 0-.1-.1-.2-.1-.2l-.3-.6c-.1-.3-.2-.4-.3-.5 0 0 0-.1-.1-.1-.7.5-1.3 1.1-2 1.6-.1.6-.2 1.2-.2 1.8-.9-1.4-1.7-2.8-2.4-4.3 0-.1.1-.1.1-.2.6 1.3 1.3 2.6 2.1 3.9.1-.5.1-1 .2-1.5.7-.6 1.4-1.1 2.2-1.7.1.1.2.3.3.5.1.2.3.5.4.8l.1-.1c.3-.4.6-.6.9-.8.1.3.1.3.1.4zm9.8 7.6h-2.4v-.1h.1c.3-.3.4-.6.4-.8 0-.3-.3-.6-.6-1l-.5-.5-.1-.1c-1.9.8-4 1.5-6 2.2 0 .3 0 .7.1 1-.9-1-1.8-2.1-2.5-3.1.5.3.9.5 1.4.8 1.9-.5 3.8-1.1 5.7-1.8-.1-.1-.2-.3-.3-.4-.3-.4-.6-.7-.9-.8-.3-.1-.6-.1-1-.1 0-.1-.1-.1-.1-.2.5-.1.9-.1 1.2.1.3.1.7.4 1 .9.1.1.2.2.3.4l.1.1c.1 0 .2-.1.3-.1-.1-.2-.3-.4-.4-.6-.4-.5-.8-.8-1.1-1-.4-.2-.8-.2-1.3-.1l-.1-.1c.4-.3.8-.8 1.2-1.3V97c1.2 2.3 3.2 4.6 5.5 6.7zm-2.3-.5c-.1-.4-.4-.7-.7-1.1l-.3-.3c-1.8.8-3.6 1.5-5.5 2.1 0 .5-.1.9-.1 1.4-1.1-1.1-2-2.3-3-3.5v-.2c.8 1.1 1.8 2.2 2.7 3.3 0-.4 0-.8.1-1.2 2-.7 3.9-1.4 5.8-2.2l.3.3c.3.4.6.6.7.8.1.2.1.4 0 .6zm2.3 1c-.6-.1-1.3-.1-2.3 0h-.1v-.2h.1c1-.1 1.8-.1 2.3 0h.1c-.1.1-.1.1-.1.2z"/><path class="st0" d="M46.4 109.3h-.2c-.3.1-.7.1-1 .1-.3.1-.7.1-1.1.3v-.2c.2-.4.2-.7.1-.9-.1-.3-.4-.6-.9-.9-.2-.1-.4-.3-.6-.4 0 0-.1 0-.1-.1-1.6 1.2-3.3 2.3-5.1 3.4.1.3.2.7.4 1-1.2-.9-2.4-1.7-3.4-2.7.5.2 1.1.4 1.6.5 1.7-.9 3.3-1.9 4.9-2.9-.2-.1-.3-.2-.5-.4-.4-.3-.8-.6-1.1-.6-.3-.1-.7 0-1 .1-.1 0-.1-.1-.2-.1.4-.2.8-.2 1.2-.1s.8.3 1.3.7c.1.1.3.2.4.3l.1.1c.1 0 .2-.1.2-.2-.2-.2-.4-.3-.6-.5-.5-.4-1-.7-1.4-.8-.4-.1-.8 0-1.3.2l-.1-.1c.3-.4.5-.9.8-1.5v-.1c2.2 2.2 4.8 4.1 7.6 5.8zm-2.3-.2c-.2-.3-.6-.7-1-1-.1-.1-.2-.1-.3-.2-1.5 1.1-3 2.2-4.7 3.2.1.5.2 1 .4 1.5-1.4-.9-2.7-1.9-4-3v-.2c1.2 1 2.4 1.9 3.7 2.8l-.3-1.2c1.7-1.1 3.3-2.1 4.9-3.3.1.1.2.2.4.2.4.3.7.5.9.7-.1.2 0 .4 0 .5zm2.5.6c-.6 0-1.3.2-2.3.4h-.1c0-.1-.1-.1-.1-.2h.1c.9-.3 1.7-.4 2.2-.4h.1c.1.1.1.2.1.2zm4.6 1.9c1.3.6 2.1 1.2 2.5 2s.4 1.7-.2 2.6c-.6.8-1.5 1.3-2.7 1.5-1.3.1-2.7-.1-4.2-.8-1.2-.5-2-1.2-2.6-2-.8-1.1-.6-2.1.4-2.9.8-.7 1.9-1.1 3.1-1.1 1.2-.2 2.4.1 3.7.7zm-.3.3c-1.7-.8-3.3-.5-4.9 1-1.5 1.3-1.3 2.6.8 3.5.9.4 1.9.6 2.7.4s1.5-.7 2.1-1.5c.7-.9.9-1.6.7-2.1-.1-.5-.6-.9-1.4-1.3zm2.6.9c.6.5 1 1 1.2 1.7.2.6.1 1.3-.4 1.9-.6.9-1.6 1.5-3.1 1.7s-3.1-.1-4.8-.9c-1.1-.5-1.9-1.1-2.5-1.9.5.6 1.3 1.2 2.5 1.7 1.6.7 3.1 1 4.5.9s2.4-.7 2.9-1.5c.4-.6.5-1.3.4-1.9.2-.5-.1-1.1-.7-1.7 0 .1 0 .1 0 0zm-1.4.5c-.5-.5-.9-.7-1.3-.9-1.4-.6-2.7-.3-4 1-1 1-1.2 1.8-.5 2.6h-.1c-.4-.5-.6-.9-.5-1.3s.3-.9.9-1.4c1.4-1.4 2.9-1.7 4.4-1 .5.3 1 .6 1.1 1zm9.6 1.7c1.4.3 2.4.8 3.1 1.5.7.7 1 1.6.7 2.5-.2.9-.9 1.6-2.1 2-1.2.4-2.6.4-4.3 0-1.3-.3-2.4-.8-3.2-1.4-1.2-1-1.3-2-.7-3 .5-.9 1.4-1.4 2.5-1.7 1.3-.2 2.5-.2 4 .1zm-.2.4c-1.9-.4-3.3.2-4.3 2-.9 1.6-.3 2.8 2 3.3 1.1.2 2 .2 2.7-.2.7-.4 1.2-1 1.5-1.9.3-1 .3-1.7 0-2.2-.4-.5-1-.8-1.9-1zm2.9.4c.8.4 1.3.8 1.7 1.4.4.6.5 1.2.4 2-.2 1-1 1.8-2.3 2.3-1.3.5-3 .5-4.8.1-1.2-.3-2.2-.7-3-1.3.7.5 1.7.9 3 1.2 1.8.4 3.3.3 4.6-.1s2-1.1 2.2-2.1c.2-.7.1-1.3-.3-1.9-.3-.7-.8-1.2-1.5-1.6zm-1.2.7c-.6-.4-1.1-.6-1.6-.7-1.5-.3-2.7.2-3.5 1.8-.6 1.1-.4 2 .5 2.7h-.1c-.6-.4-.9-.8-1-1.2-.1-.4 0-.9.3-1.5.9-1.7 2.1-2.3 3.8-1.9.7.2 1.3.4 1.6.8zm21.3-1.1c-.3.3-.7.6-1 .9.5 1.6 1 3.2 1.5 4.9l1.5.3c-1.6.3-3.2.6-4.9.8.5-.2.9-.5 1.3-.7-.3-1.1-.6-2.1-.8-3.2-.7 1.5-1.4 3-2.3 4.6-.3 0-.7.1-1 .1l-.1-.1c.3 0 .6 0 .9-.1 1-1.6 1.8-3.2 2.4-4.8-.1-.2-.1-.5-.2-.7-.7 1.8-1.6 3.6-2.7 5.3-.3 0-.5 0-.8.1-1.2-1.2-2.2-2.5-3.1-3.8 0 .9.1 1.7.1 2.6 0 .3.1.6.2.7s.3.3.7.5c.3.2.7.3 1 .5-1.9.1-3.8.1-5.7.1-.1 0-.1-.1-.2-.1 1.8.1 3.6.1 5.3 0-.1-.1-.3-.2-.4-.3-1.6.1-3.2.1-4.8 0h.2c.8-.2 1.3-.4 1.6-.6.3-.2.4-.5.4-1v-4l-1.2-.6c1.5 0 3.1 0 4.6-.1-.4.2-.8.5-1.3.7.9 1.3 2 2.6 3.2 3.9.1-.2.2-.3.3-.5-1.1-1.1-2-2.3-2.9-3.4.4-.2.8-.4 1.1-.5.1 0 .1 0 .2.1-.4.2-.7.3-1.1.5.8 1.1 1.7 2.2 2.7 3.2.7-1.2 1.3-2.5 1.8-3.7-.4-.2-.8-.3-1.2-.5 1.7-.6 3.2-.9 4.7-1.1zm-10.1 2.1c0 1.2 0 2.3.1 3.5 0 .5.1.9.4 1.1.2.2.7.3 1.4.4 0 0-.1 0-.1-.1-.7-.2-1.1-.5-1.1-.9v-.4c0-1-.1-1.9-.1-2.9-.2-.2-.4-.4-.6-.7zm10.7-1.9l-.9.6c.5 1.6 1.1 3.2 1.6 4.7.7.2 1.4.4 2.2.6-1.9.4-3.8.7-5.7 1-.1 0-.1-.1-.2-.1 1.7-.2 3.5-.5 5.1-.8-.6-.1-1.2-.3-1.7-.5-.6-1.6-1.1-3.3-1.6-4.9l.9-.6h.3zm10.9-5.7c.1 0 .1 0 0 0 .1 0 .1.1 0 0-.4 1-.8 1.8-1 2.6-.1.3-.2.5-.2.6-.4 1.2-.9 2.5-1.5 3.7.4.6.8 1.2 1.1 1.8.6 0 1.2.1 1.8.1-1.6.6-3.2 1.1-4.9 1.6.4-.3.7-.7 1.1-1-.4-.6-.7-1.2-1-1.8-1.1-.3-2.1-.7-3.1-1.1l-.6-.3c-.6-.2-1-.4-1.4-.5-.3-.1-.8-.2-1.4-.3h-.1c1.5-.3 2.9-.6 4.3-1-.2.3-.5.6-.8.9 1.3.5 2.7 1 4.2 1.4.1-.1.1-.2.1-.3-1.3-.4-2.6-.8-3.7-1.2.2-.2.4-.5.7-.7h.2l-.6.6c1.1.4 2.3.8 3.5 1.1.3-.7.7-1.5.9-2.2.2-.6.3-1.1.1-1.3-.1-.2-.5-.3-1.1-.4 1.7-.8 2.7-1.6 3.4-2.3zm.6.1c0 .1.1.1.1.2v.1c-.2.4-.4.8-.5 1.1-.1.4-.3.9-.5 1.7-.4 1.2-.8 2.4-1.4 3.6.4.6.8 1.1 1.2 1.7l2.4.3c-2 .8-4.1 1.5-6.3 2.1-.1 0-.1-.1-.2-.1 2-.5 4-1.2 5.9-1.9l-2.1-.3c-.4-.6-.8-1.1-1.2-1.7.6-1.2 1-2.4 1.4-3.7.1-.2.1-.4.2-.6.2-1 .6-1.9 1-2.5zm4.6.1c.8-1 1.8-2 3.1-2.9 1-.7 1.8-1.1 2.7-1.4.9-.3 1.6-.3 2.1 0 .7.4.6 1.1-.2 2h.1c.1-.1.3-.2.5-.3.4-.4.6-.9.6-1.2 0-.4-.2-.7-.6-.9-.5-.3-1.1-.3-2-.1h.1c.9-.2 1.6-.2 2.1.1.7.4.8 1.1.1 2.1.6-.3 1.1-.4 1.7-.5.5-.1 1 0 1.3.2.5.3.7.7.5 1.3-.2.6-.7 1.3-1.6 2-1.8 1.4-3.7 2.7-5.8 3.9.2-.4.4-.7.7-1.1-.6-.5-1.3-1-1.9-1.5-.3.2-.7.4-1 .7-.1 0-.1 0-.2-.1.5-.3.8-.5 1.1-.7-.1-.1-.2-.1-.2-.2-.1 0-.1.1-.2.1-.3.2-.6.4-1.1.7v-.5s.1 0 .1-.1c.2-.1.4-.2.5-.3.2-.1.3-.2.4-.2-.5-.4-1.1-.9-1.6-1.3-.6 0-1 .1-1.3.2zm10.1-3.4c.8-.3 1.4-.3 2 0s.8.8.7 1.4c-.2.7-.8 1.5-1.9 2.4-1.7 1.3-3.6 2.6-5.5 3.8h-.3c1.8-1.1 3.5-2.2 5.1-3.5 1.1-.8 1.7-1.4 2-1.9.6-1 .5-1.7-.3-2.1-.4-.1-1-.2-1.8-.1 0 .1 0 0 0 0zm-7.9 2c.6.5 1.3 1 2 1.5.1 0 .1-.1.1-.1l.1-.1s.1 0 .1-.1c-.6-.5-1.2-.9-1.8-1.4.3-.4.6-.7 1-.9.4-.3.8-.5 1.1-.6.3-.1.7-.1 1.2-.1-.1 0-.2.1-.3.1-.7 0-1.3.2-2 .7-.4.2-.6.5-.8.8.6.4 1.1.9 1.7 1.3.1-.1.2-.1.3-.2.9-.6 1.5-1.2 1.7-1.6.2-.5.1-.8-.3-1.1-.4-.2-.8-.3-1.4-.2-.6.1-1.1.4-1.7.7-.3.4-.7.8-1 1.3zm2.3 1.8c.8.6 1.7 1.2 2.5 1.8.1-.1.3-.2.4-.3-.8-.5-1.5-1-2.3-1.6.3-.2.6-.4.7-.5.8-.6 1.4-1 1.9-1.2s.9-.3 1.4-.3c0 0-.1 0-.1.1-.5.1-.9.2-1.3.4s-1 .6-1.7 1.1c-.2.1-.4.3-.6.4.7.5 1.4 1 2.2 1.5.1-.1.2-.1.3-.2.4-.3.7-.5 1.1-.8 1.4-1.1 1.6-1.9.7-2.4-.5-.3-1.1-.3-1.7-.1-.6.2-1.5.8-2.8 1.6-.1.1-.4.2-.7.5zm6.3-10.1c.8-.9 1.7-1.5 2.8-1.9 1.1-.4 2.3-.4 3.5-.1 1.1.3 1.8.8 2.1 1.6.2.8-.1 1.8-1 2.9-.7.9-1.6 1.6-2.7 2.1-1.6.7-3 .7-4.2.1-1.1-.5-1.6-1.2-1.6-2-.1-.9.3-1.7 1.1-2.7zm.5.2c-1.1 1.3-.7 2.4 1.4 3.3 2 .8 3.7.5 5-1 .6-.7.7-1.3.4-1.8-.3-.5-1-.9-2.1-1.2-1.2-.3-2.2-.4-2.9-.3s-1.3.4-1.8 1zm1.3-1.9c.7-.5 1.5-.8 2.3-1 .9-.2 1.7-.2 2.6 0 1.3.3 2.1.9 2.3 1.8.3.9-.1 2.1-1.1 3.3-.6.8-1.5 1.5-2.5 2 .8-.4 1.6-1.1 2.3-2 .9-1.2 1.3-2.2 1-3.2-.2-.9-1-1.5-2.1-1.7-.9-.2-1.7-.2-2.5-.1-.8.2-1.5.5-2.3.9zm.5 1c-.6.4-1 .7-1.3 1-.9 1-.5 1.9 1.4 2.7 1.4.5 2.6.5 3.7 0v.1c-.7.4-1.3.6-1.9.6s-1.3-.1-2-.4c-2-.8-2.4-1.8-1.5-2.9.6-.7 1.1-1 1.6-1.1zm1.1-3.6c.5-.8 1-1.6 1.4-2.4.6-1.2 1.2-2.1 1.9-2.6 1-.8 2.2-1.2 3.6-1.2 1.5 0 2.4.5 2.8 1.4.2.4.2.9.1 1.4s-.3 1.2-.7 2c-.5 1.1-1.1 2.1-1.7 3.1 0-.4 0-.7-.1-1.1-2.2-.3-4.3-.7-6.3-1.2-.3.2-.7.4-1 .6zm8.2 1.4c-.1 0-.2.1-.2.1.5-.9 1-1.8 1.4-2.7.6-1.4.9-2.4.8-3.1-.1-1.5-1.2-2.2-3-2.3-1.2 0-2.3.2-3.1.8-.1.1-.2.2-.4.2l-.1.1c.9-.9 2-1.3 3.6-1.3s2.7.5 3.1 1.6c.3.8.1 2.2-.7 4-.4.8-.9 1.7-1.4 2.6zm-6.6-3.2c2.2.4 4.4.8 6.7 1 .1-.1.1-.3.2-.4-2.2-.2-4.3-.5-6.4-.9l.3-.6c.2-.3.3-.6.5-.8l.6-.6c-.4.4-.7.9-1 1.4-.1.1-.1.3-.2.4 2 .4 4.1.6 6.2.8.3-.6.4-1 .5-1.3 0-.3 0-.6-.1-.8-.3-.7-1.2-1.1-2.6-1.2s-2.4.2-3.2.8c-.5.4-.9 1-1.4 1.8 0 .2-.1.3-.1.4zm1.5-14.6c.1 0 .1 0 0 0 .8.7 1.5 1.2 2.2 1.6.3.2.5.3.6.4 1.1.7 2.2 1.4 3.2 2.2.8-.1 1.6-.2 2.5-.3l.9-1.2c-.1 1.2-.3 2.5-.5 3.7-.2-.3-.4-.7-.6-1-.8.1-1.7.2-2.5.2-.8.6-1.7 1.2-2.6 1.8-.2.1-.4.2-.6.4-.5.3-.9.6-1.2.7-.3.2-.6.5-1 .8 0 0-.1 0-.1.1.4-1.1.7-2.2.9-3.3.2.3.4.5.6.8 1.2-.7 2.3-1.5 3.5-2.4-.1-.1-.2-.1-.3-.2-1 .8-2 1.5-3.1 2.1-.1-.2-.3-.5-.4-.7l.1-.1c.1.2.2.4.4.6 1-.6 1.9-1.3 2.9-2-.6-.5-1.3-.9-1.9-1.3s-1-.5-1.3-.5c-.2 0-.5.2-.9.6-.1-1.2-.4-2.2-.8-3zm.3-.3h.2l.1.1c.3.3.6.6.9.8.3.2.8.5 1.5 1 1.1.7 2.1 1.4 3.1 2.1l2.4-.3c.5-.5.9-1 1.4-1.6-.1 1.6-.3 3.2-.6 4.8-.1 0-.1.1-.2.1.3-1.5.5-3 .6-4.5-.4.5-.8.9-1.2 1.4l-2.4.3c-1.1-.7-2.1-1.5-3.2-2.1-.2-.1-.3-.2-.5-.3-.9-.7-1.6-1.3-2.1-1.8z"/><path d="M123.4 55.6v19.8m-7.5-7.8h15.4m-12.7-5.8h9.2M23.1 55.6v19.8m-7-7.8h15m-12.2-5.8h8.7" fill="none" stroke="#daa520" stroke-width=".5" stroke-miterlimit="10"/></svg>